<svg viewBox="0 0 20 14" fill="none" xmlns="http://www.w3.org/2000/svg"><path fill-rule="evenodd" clip-rule="evenodd" d="M19.541 1.407c.139-.496 0-.862-.662-.862H16.69c-.556 0-.813.316-.952.664 0 0-1.113 2.905-2.688 4.793-.51.547-.742.72-1.02.72-.14 0-.349-.173-.349-.67V1.407c0-.596-.153-.862-.616-.862h-3.44a.544.544 0 0 0-.557.54c0 .564.788.695.87 2.284v3.453c0 .757-.128.894-.407.894-.741 0-2.545-2.919-3.616-6.259-.208-.65-.418-.912-.977-.912H.75C.125.545 0 .861 0 1.21c0 .62.742 3.7 3.454 7.774 1.808 2.781 4.354 4.29 6.673 4.29 1.391 0 1.563-.335 1.563-.912v-2.103c0-.67.131-.803.572-.803.325 0 .881.174 2.18 1.515 1.483 1.59 1.727 2.303 2.562 2.303h2.187c.625 0 .939-.335.759-.997-.199-.658-.907-1.613-1.846-2.747-.51-.645-1.275-1.34-1.508-1.689-.324-.446-.231-.646 0-1.043 0 0 2.667-4.023 2.944-5.39h.001Z" fill="#fff"/></svg>