<svg viewBox="0 0 20 20" fill="none" xmlns="http://www.w3.org/2000/svg"><path d="M12.73 10.22a4.315 4.315 0 0 0-1.108-.508 17.06 17.06 0 0 0-.82-.223 17.63 17.63 0 0 0-.987-.24 9.406 9.406 0 0 1-1.446-.429 1.892 1.892 0 0 1-.78-.573 1.282 1.282 0 0 1-.252-.83c0-.31.101-.61.29-.854a1.93 1.93 0 0 1 .878-.613 4.264 4.264 0 0 1 1.525-.237c.405-.006.809.05 1.197.162.283.08.55.211.785.388.175.127.321.288.432.473a.476.476 0 1 0 .839-.451 2.548 2.548 0 0 0-.676-.766c-.329-.25-.7-.438-1.097-.554-.48-.141-.98-.21-1.48-.204a5.192 5.192 0 0 0-1.868.3c-.51.183-.96.505-1.297.93-.312.409-.48.91-.48 1.425-.014.51.145 1.009.452 1.416.309.387.712.687 1.172.87.391.151.793.277 1.202.375.007.003.014.01.023.012.174.052.455.122.857.21.165.035.32.074.474.113.029.008.067.016.094.025.011.004.023.003.034.005.229.059.449.12.652.182.302.09.592.22.858.39.2.13.368.305.49.51.124.239.183.506.175.775.017.356-.087.707-.296.995a2.12 2.12 0 0 1-.96.713 4.07 4.07 0 0 1-1.605.28 3.975 3.975 0 0 1-1.842-.382 2.178 2.178 0 0 1-.763-.679 1.387 1.387 0 0 1-.272-.743.476.476 0 1 0-.953 0c.016.462.17.909.441 1.283.286.413.666.75 1.109.984a4.89 4.89 0 0 0 2.28.489 4.98 4.98 0 0 0 1.972-.353 3.034 3.034 0 0 0 1.37-1.04 2.501 2.501 0 0 0 .471-1.564 2.337 2.337 0 0 0-1.09-2.061Zm6.643 1.464A9.52 9.52 0 0 0 8.316.626a5.715 5.715 0 0 0-7.69 7.69 9.519 9.519 0 0 0 11.058 11.057 5.715 5.715 0 0 0 7.69-7.69Zm-2.789 6.775a4.762 4.762 0 0 1-4.594 0 .481.481 0 0 0-.323-.05A8.568 8.568 0 0 1 1.591 8.332a.475.475 0 0 0-.05-.322A4.763 4.763 0 0 1 8.01 1.543a.46.46 0 0 0 .323.05 8.568 8.568 0 0 1 10.075 10.074.476.476 0 0 0 .05.323 4.762 4.762 0 0 1-1.873 6.468Z" fill="#fff"/></svg>