<svg viewBox="0 0 100 142" fill="none" xmlns="http://www.w3.org/2000/svg"><g clip-path="url(#a)"><path d="M84.38 61.292c2.2-.722 3.012-.674 6.302-1.555-17.027-9.673-23.925-18.535-39.337-13.74.939-14.62.306-31.878-24.25-27.694-2.289-3.577-2.784-2.446-3.739-14.697-7.049 9.938-7.614 11.553-8.564 19.923C22.799 39.012 2.51 53.162 2.603 68.903c.69 37.332 14.76 55.58 43.826 57.305 20.796 2.144 41.216.397 43.443-6.186 3.56-6.076 4.006-11.118 3.885-18.27 1.737-5.188 4.454-10.44.133-20.856 1.949-7.374.998-12.907-9.51-19.604Z" fill="#281A11"/><path d="M71.826 71.042c-1.978 3.79-2.102 7.548-.326 8.469 6.485-4.598 9.835-10.218 7.117-22.595l-.029.14c-11.125-9.99-26.157-9.487-31.146-4.026-4.055 4.479-4.457 7.447-8.993 14.849 1.963.87 3.62 1.092 5.68 4.066-4.192-9.188 5.361-15.739 9.206-16.037-5.232 6.79-13.242 16.12 3.388 22.573 1.644.425 2.011-3.665 1-4.458-1.549-1.315-8.231-2.917-7.302-7.889l-.14-.029c11.29 5.889 20.708 4.297 26.575-.868-.745 3.925-2.66 4.97-4.997 5.93" fill="#AA7340"/><path d="M83.32 64.038c7.58 5.951 6.5 13.092 4.72 15.632-.543 9.391-7.471 13.576-7.848 13.41.382-2.297.955-4.38.712-6.775 1.204-.722 2.675-2.18 4.108-5.026-3.54 1.68-6.684 3.853-10.76.555.078.046 9.28-3.351 9.155-17.22M83.176 96.273c.298.12 6.023-2.346 7.343-12.81 1.702 14.045-6.015 19.505-8.044 22.111.402-2.968 1.02-5.129.7-9.301ZM80.807 115.733c-2.629-.626-5.684-.606-8.247-1.981 2.552-4.875 14.31-1.706 17.172-10.389 1.307 12.821-5.433 17.953-12.742 18.98.844-.824 2.82-2.884 3.817-6.61Z" fill="#AA7340"/><path d="M78.668 57.103c-8.236-5.909-12.231-7.167-19.5-7.48-2.535 4.936-2.368 13.007.572 14.547 5.687 3.598 10.277 3.1 17 .634 1.855.966 1.767 6.843-1.6 11.404 4.3-3.813 5.492-9.787 3.528-19.105ZM81.754 81.287c1.313-2.547 5.738-9.121 1.548-17.311 4.007 3.782 6.13 6.739 5.784 12.153-1.57 2.084-3.402 3.44-7.332 5.158ZM89.811 103.408c1.31 15.813-8.679 17.758-9.312 18.127.588-.29 6.686-5.583 7.143-14.553 1.472-1.458 1.893-2.369 2.157-3.371M88.793 90.178c.497 3.592-.823 7.604-2.892 11.551 2.83-4.085 5.767-9.262 4.618-18.267-.155 1.904-.661 4.235-1.726 6.716Z" fill="#BC8456"/><path d="M61.814 74.39c1.264 8.442-6.071 14.332-6.071 14.332 3.774-.811 9.445-3.728 13.027-15.93-2.366 1.1-4.154 1.38-6.956 1.598ZM64.68 100.231c1.257-1.268 9.646-8.438 7.361-15.476 2.606 2.029 4.204 2.532 7.126 2.015-.008 6.92-6.503 9.991-14.487 13.461ZM73.112 101.164c-1.376 5.291-7.824 9.281-10.475 11.055 6.452-.997 17.614-4.52 18.51-13.34-3.135 1.704-3.884 1.639-8.035 2.285ZM60.56 124.084c3.65-.778 6.334-2.429 10.414-7.313 2.94 1.54 5.084 1.099 6.317 1.234-3.744 4.396-10.34 6.096-16.776 6.158" fill="#59595A"/><path d="M65.952 73.947c-1.014 6.391-1.881 8.62-5.924 12.895 3.069-1.953 6.082-5.354 8.804-14.066-1.113.564-1.672.714-2.88 1.17ZM76.692 86.967c.28 2.785-1.677 5.904-5.39 9.427 2.861-2.23 4.966-4.058 7.583-9.682-.355.162-1.398.242-2.193.255ZM76.501 100.655c-.287 2.405-.377 3.56-4.234 6.789 2.916-1.779 4.145-1.909 6.84-7.487-.417.178-1.642.573-2.606.698ZM72.7 117.505c-.908 1.574-1.503 2.332-5.34 4.89 3.97-2.062 4.69-1.856 7.25-4.47-.39.037-1.077-.044-1.91-.42Z" fill="#fff"/><path d="M26.438 25.53C18.89 20.702 22.352 7.8 22.352 7.8c-2.168 4.572-8.156 11.765-1.135 23.32 1.805-2.944 2.897-3.836 5.22-5.59Z" fill="#59595A"/><path d="M24.775 26.775c-5.584-3.959-5.035-8.363-4.36-14.531-1.278 3.669-5.02 10.06.821 18.206.93-1.247 1.967-2.589 3.539-3.675Z" fill="#fff"/><path d="M68.232 114.977c-7.013 1.879-13.338 1.113-14.103-1.742l.517.194c6.437-2.79 9.94-5.857 13.063-10.086-5.71 1.53-10.718 1.209-11.217-.653 5.294-3.082 9.422-8.778 10.573-15.406-4.224 8.317-22.09 7.183-22.638 5.135 5.338-1.43 8.817-5.822 7.736-9.856-10.875 1.118-9.123-11.458-17.63-13.17-6.586-.497-5.37-1.421-2.465-4.727 18.728-17.99 15.593-40.365 2.448-39.77-9.891.322-8.985 10.656-10.592 17.073-.338-2.504-1.496-5.586-4.118-10.404 1.407 6.74.033 10.301-.713 13.229-.512 3.796-5.703 10.242-6.653 12.16-7.45 13.903-1.416 40.89 8.498 41.892l-.468-.008c4.507 16.82 31.283 31.597 47.762 16.139Z" fill="#A9733F"/><path d="M67.71 103.343c-5.014 5.867-7.48 7.592-13.391 10.107 2.484 4.058 9.592 2.286 13.681 1.656-9.02 8.537-22.787 8.301-34.278.67 17.207.911 17.544-4.035 20.544-8.232-1.675.449-4.512-4.179-.75-8.513-9.832 2.036-16.927-5.575-12.794-10.009-6.538 1.42-13.093-12.124-10.757-20.533 15.51 1.033 9.32 15.662 22.198 14.074.937 4.738-2.82 8.34-7.736 9.856 2.937 2.273 18.793 2.615 22.642-4.869-2.497 9.05-5.425 11.033-10.532 15.062.213 1.539 4.892 2.613 11.172.731Z" fill="#905D31"/><path d="M23.999 41.75c5.963-14.237 19.08-17.419 21.241-2.898.152-11.349-6.971-15.094-11.936-13.764-7.899 2.05-7.972 6.992-9.396 16.82M32.157 107.948c3.134 1.022 7.16-.588 7.64-4.509.959-4.115-6.23-9.839-17.035-9.205 9.445-10.18-6.93-14.44-11.969-33.246-3.456 10.438-.798 35.004 9.718 37.508 4.367 7.61 7.183 8.186 11.646 9.452Z" fill="#BB8355"/><path d="M35.667 59.977c9.883-11.03 11.652-23.544 5.383-29.315 1.836 9.087 2.957 11.78-5.13 29.513" fill="#905D31"/><path d="M30.795 55.694c7.944-2.128 11.513-4.947 14.139-13.766.165 7.073-6.35 16.27-10.902 20.882 2.314-3.281-.21-5.998-3.237-7.116Z" fill="#271911"/></g><defs><clipPath id="a"><path fill="#fff" d="M0 0h100v142H0z"/></clipPath></defs></svg>